<svg xmlns="http://www.w3.org/2000/svg" fill="#fff" viewBox="0 0 231.1 45.4"><path class="cls-1" d="M161.53,9.5a23.73,23.73,0,0,0-32.72,0,22.49,22.49,0,0,0,0,32.21,22.76,22.76,0,0,0,16.33,6.66,23.38,23.38,0,0,0,16.39-6.65,22.53,22.53,0,0,0,0-32.22Zm1.8,16.17A17.94,17.94,0,0,1,158,38.5a18.16,18.16,0,1,1,5.34-12.83Z" transform="translate(-3.64 -2.96)"/><path class="cls-1" d="M85.22,29.8l-4,8.74-4-8.75L65.06,4.14H59.5l20.06,42a1.8,1.8,0,0,0,3.24,0l20.07-42H97.24Z" transform="translate(-3.64 -2.96)"/><path class="cls-1" d="M229.89,4V28.27l.1,9.89-33-33a1.79,1.79,0,0,0-3.06,1.26V47.29h4.85l-.11-34.11,33,33.37a1.79,1.79,0,0,0,3.07-1.26V4Z" transform="translate(-3.64 -2.96)"/><path class="cls-1" d="M3.64,47.1H9.27l5.05-10.55h23L42.45,47.1H48L27.41,5.24a1.79,1.79,0,0,0-3.22,0ZM35.17,32H16.5l4.8-10,4.53-9.62,4.52,9.63Z" transform="translate(-3.64 -2.96)"/></svg>